<svg width="1737" height="360" viewBox="0 0 1737 360" fill="none" xmlns="http://www.w3.org/2000/svg">
<path d="M152.992 239.141V142.884H118.361V120.676H212.853V142.884H178.405V239.141H152.992Z" fill="black"/>
<path d="M238.59 180C238.59 144.31 264.694 118.728 300.568 118.728C336.442 118.728 362.377 144.31 362.377 180C362.377 215.69 336.273 241.272 300.568 241.272C264.864 241.272 238.59 215.69 238.59 180ZM336.442 180C336.442 157.792 322.409 141.105 300.568 141.105C278.728 141.105 264.511 157.792 264.511 180C264.511 202.208 278.544 218.895 300.568 218.895C322.592 218.895 336.442 202.024 336.442 180Z" fill="black"/>
<path d="M481.35 239.141L424.878 161.887V239.141H399.663V120.676H425.598L480.475 195.092V120.676H505.689V239.141H481.35Z" fill="black"/>
<path d="M581.673 239.141V190.659L536.199 120.676H564.971L594.28 168.098L623.589 120.676H652.178L606.888 190.659V239.141H581.673Z" fill="black"/>
<path d="M814.832 239.141L791.566 197.04H773.099V239.141H747.87V120.676H803.284C827.976 120.676 843.238 136.841 843.238 158.865C843.238 179.647 829.925 191.012 817.134 194.033L843.958 239.141H814.832ZM817.317 158.682C817.317 148.912 809.679 142.87 799.74 142.87H773.099V174.833H799.74C809.679 174.833 817.317 168.79 817.317 158.668V158.682Z" fill="black"/>
<path d="M875.907 180C875.907 144.31 902.011 118.728 937.885 118.728C973.759 118.728 999.694 144.31 999.694 180C999.694 215.69 973.59 241.272 937.885 241.272C902.181 241.272 875.907 215.69 875.907 180ZM973.759 180C973.759 157.792 959.726 141.105 937.885 141.105C916.045 141.105 901.828 157.792 901.828 180C901.828 202.208 915.861 218.895 937.885 218.895C959.909 218.895 973.759 202.024 973.759 180Z" fill="black"/>
<path d="M1036.97 120.676H1099.31C1121.87 120.676 1133.41 135.062 1133.41 150.874C1133.41 165.614 1124.17 175.736 1112.98 178.052C1125.77 180 1135.71 192.269 1135.71 207.008C1135.71 224.938 1123.99 239.155 1101.26 239.155H1036.97V120.676ZM1107.65 155.308C1107.65 148.023 1102.33 142.884 1093.8 142.884H1062.19V167.746H1093.8C1102.33 167.746 1107.65 162.945 1107.65 155.308ZM1109.97 203.436C1109.97 195.982 1104.65 189.939 1094.88 189.939H1062.19V216.933H1094.88C1104.29 216.933 1109.97 211.963 1109.97 203.436Z" fill="black"/>
<path d="M1174.24 120.676H1236.58C1259.14 120.676 1270.68 135.062 1270.68 150.874C1270.68 165.614 1261.44 175.736 1250.25 178.052C1263.04 180 1272.98 192.269 1272.98 207.008C1272.98 224.938 1261.26 239.155 1238.53 239.155H1174.24V120.676ZM1244.92 155.308C1244.92 148.023 1239.6 142.884 1231.07 142.884H1199.46V167.746H1231.07C1239.6 167.746 1244.92 162.945 1244.92 155.308ZM1247.24 203.436C1247.24 195.982 1241.92 189.939 1232.15 189.939H1199.46V216.933H1232.15C1241.56 216.933 1247.24 211.963 1247.24 203.436Z" fill="black"/>
<path d="M1311.51 239.141V120.676H1336.72V239.141H1311.51Z" fill="black"/>
<path d="M1461.4 239.141L1404.92 161.887V239.141H1379.71V120.676H1405.64L1460.52 195.092V120.676H1485.74V239.141H1461.4Z" fill="black"/>
<path d="M1520.51 222.453L1534.36 202.744C1542.7 211.441 1555.68 218.909 1572.01 218.909C1586.04 218.909 1592.61 212.697 1592.61 205.765C1592.61 185.167 1524.41 199.553 1524.41 154.969C1524.41 135.26 1541.46 118.911 1569.34 118.911C1588.18 118.911 1603.81 124.601 1615.52 135.429L1601.49 154.249C1591.9 145.368 1579.11 141.288 1567.04 141.288C1556.38 141.288 1550.34 145.905 1550.34 153.006C1550.34 171.656 1618.36 159.049 1618.36 203.267C1618.36 224.938 1602.73 241.272 1570.94 241.272C1548.02 241.272 1531.69 233.634 1520.49 222.439L1520.51 222.453Z" fill="black"/>
</svg>
